<?xml version="1.0" standalone="no"?>
<!DOCTYPE svg PUBLIC "-//W3C//DTD SVG 20010904//EN"
 "http://www.w3.org/TR/2001/REC-SVG-20010904/DTD/svg10.dtd">
<svg version="1.0" xmlns="http://www.w3.org/2000/svg"
 width="1280.000000pt" height="1280.000000pt" viewBox="0 0 1280.000000 1280.000000"
 preserveAspectRatio="xMidYMid meet">
<metadata>
Created by potrace 1.15, written by Peter Selinger 2001-2017
</metadata>
<g transform="translate(0.000000,1280.000000) scale(0.100000,-0.100000)"
fill="#000000" stroke="none">
<path d="M5 12788 c-3 -7 -4 -2886 -3 -6398 l3 -6385 6395 0 6395 0 0 6395 0
6395 -6393 3 c-5109 2 -6394 0 -6397 -10z m3125 -1688 l0 -1430 -1430 0 -1430
0 0 1430 0 1430 1430 0 1430 0 0 -1430z m3140 0 l0 -1430 -1435 0 -1435 0 0
1430 0 1430 1435 0 1435 0 0 -1430z m3130 0 l0 -1430 -1430 0 -1430 0 0 1430
0 1430 1430 0 1430 0 0 -1430z m3130 0 l0 -1430 -1430 0 -1430 0 0 1430 0
1430 1430 0 1430 0 0 -1430z m-9400 -3135 l0 -1435 -1430 0 -1430 0 0 1435 0
1435 1430 0 1430 0 0 -1435z m3140 0 l0 -1435 -1435 0 -1435 0 0 1428 c0 786
3 1432 7 1435 3 4 649 7 1435 7 l1428 0 0 -1435z m3130 0 l0 -1435 -1430 0
-1430 0 0 1435 0 1435 1430 0 1430 0 0 -1435z m3130 0 l0 -1435 -1430 0 -1430
0 0 1428 c0 786 3 1432 7 1435 3 4 647 7 1430 7 l1423 0 0 -1435z m-9400
-3135 l0 -1430 -1430 0 -1430 0 0 1430 0 1430 1430 0 1430 0 0 -1430z m3140 0
l0 -1430 -1435 0 -1435 0 0 1430 0 1430 1435 0 1435 0 0 -1430z m3130 0 l0
-1430 -1430 0 -1430 0 0 1430 0 1430 1430 0 1430 0 0 -1430z m3130 0 l0 -1430
-1430 0 -1430 0 0 1430 0 1430 1430 0 1430 0 0 -1430z m-9400 -3130 l0 -1430
-1430 0 -1430 0 0 1430 0 1430 1430 0 1430 0 0 -1430z m3140 0 l0 -1430 -1435
0 -1435 0 0 1423 c0 783 3 1427 7 1430 3 4 649 7 1435 7 l1428 0 0 -1430z
m3130 0 l0 -1430 -1430 0 -1430 0 0 1430 0 1430 1430 0 1430 0 0 -1430z m3130
0 l0 -1430 -1430 0 -1430 0 0 1430 0 1430 1430 0 1430 0 0 -1430z"/>
</g>
</svg>
